HIERARCHY
ROOT Hips
{
	OFFSET 0.000000 103.266502 0.000000
	CHANNELS 6 Xposition Yposition Zposition Xrotation Yrotation Zrotation 
	JOINT Spine
	{
		OFFSET -0.002400 12.777504 0.315300
		CHANNELS 3 Xrotation Yrotation Zrotation
		JOINT Spine1
		{
			OFFSET -0.002067 5.816869 0.032633
			CHANNELS 3 Xrotation Yrotation Zrotation
			JOINT Spine1_split
			{
				OFFSET -0.002067 5.816869 0.032633
				CHANNELS 3 Xrotation Yrotation Zrotation
				JOINT Spine2
				{
					OFFSET -0.002067 5.816869 0.032633
					CHANNELS 3 Xrotation Yrotation Zrotation
					JOINT Neck
					{
						OFFSET -0.003700 21.199493 -0.826900
						CHANNELS 3 Xrotation Yrotation Zrotation
						JOINT Head
						{
							OFFSET 0.000000 20.442200 4.834800
							CHANNELS 3 Xrotation Yrotation Zrotation
							JOINT HeadTop_End
							{
								OFFSET 0.000000 34.668396 4.968400
								CHANNELS 3 Xrotation Yrotation Zrotation
								End Site
								{
									OFFSET 0.000000 0.000000 0.000000
								}
							}
						}
					}
					JOINT LeftShoulder
					{
						OFFSET 3.288150 8.794197 -1.372250
						CHANNELS 3 Xrotation Yrotation Zrotation
						JOINT LeftShoulder_split
						{
							OFFSET 3.288150 8.794197 -1.372250
							CHANNELS 3 Xrotation Yrotation Zrotation
							JOINT LeftArm
							{
								OFFSET 11.953299 -2.279007 -0.146200
								CHANNELS 3 Xrotation Yrotation Zrotation
								JOINT LeftForeArm
								{
									OFFSET 18.448900 0.000000 0.000000
									CHANNELS 3 Xrotation Yrotation Zrotation
									JOINT LeftHand
									{
										OFFSET 29.527798 0.000000 0.000000
										CHANNELS 3 Xrotation Yrotation Zrotation
										JOINT LeftHandThumb1
										{
											OFFSET 10.739754 -2.369614 9.225399
											CHANNELS 3 Xrotation Yrotation Zrotation
											JOINT LeftHandThumb2
											{
												OFFSET 4.926170 -2.844131 2.844125
												CHANNELS 3 Xrotation Yrotation Zrotation
												JOINT LeftHandThumb3
												{
													OFFSET 4.614891 -2.664413 2.664409
													CHANNELS 3 Xrotation Yrotation Zrotation
													JOINT LeftHandThumb4
													{
														OFFSET 4.432465 -2.559082 2.559083
														CHANNELS 3 Xrotation Yrotation Zrotation
														End Site
														{
															OFFSET 0.000000 0.000000 0.000000
														}
													}
												}
											}
										}
										JOINT LeftHandIndex1
										{
											OFFSET 26.467674 0.187653 6.405298
											CHANNELS 3 Xrotation Yrotation Zrotation
											JOINT LeftHandIndex2
											{
												OFFSET 8.792900 0.000000 0.000000
												CHANNELS 3 Xrotation Yrotation Zrotation
												JOINT LeftHandIndex3
												{
													OFFSET 10.075203 0.000000 0.000000
													CHANNELS 3 Xrotation Yrotation Zrotation
													End Site
													{
														OFFSET 0.000000 0.000000 0.000000
													}
												}
											}
										}
										JOINT LeftHandMiddle1
										{
											OFFSET 25.764404 0.000000 0.000000
											CHANNELS 3 Xrotation Yrotation Zrotation
											JOINT LeftHandMiddle2
											{
												OFFSET 9.393974 0.000000 0.000000
												CHANNELS 3 Xrotation Yrotation Zrotation
												JOINT LeftHandMiddle3
												{
													OFFSET 10.771950 0.000000 0.000000
													CHANNELS 3 Xrotation Yrotation Zrotation
													End Site
													{
														OFFSET 0.000000 0.000000 0.000000
													}
												}
											}
										}
										JOINT LeftHandRing1
										{
											OFFSET 24.660927 0.144547 -6.225808
											CHANNELS 3 Xrotation Yrotation Zrotation
											JOINT LeftHandRing2
											{
												OFFSET 9.393799 0.000000 0.000000
												CHANNELS 3 Xrotation Yrotation Zrotation
												JOINT LeftHandRing3
												{
													OFFSET 9.928497 0.000000 0.000000
													CHANNELS 3 Xrotation Yrotation Zrotation
													End Site
													{
														OFFSET 0.000000 0.000000 0.000000
													}
												}
											}
										}
										JOINT LeftHandPinky1
										{
											OFFSET 23.655350 0.125290 -12.815412
											CHANNELS 3 Xrotation Yrotation Zrotation
											JOINT LeftHandPinky2
											{
												OFFSET 8.425102 0.000000 0.000000
												CHANNELS 3 Xrotation Yrotation Zrotation
												JOINT LeftHandPinky3
												{
													OFFSET 8.147003 0.000000 0.000000
													CHANNELS 3 Xrotation Yrotation Zrotation
													End Site
													{
														OFFSET 0.000000 0.000000 0.000000
													}
												}
											}
										}
									}
								}
							}
						}
					}
					JOINT RightShoulder
					{
						OFFSET -3.249400 8.794197 -1.372250
						CHANNELS 3 Xrotation Yrotation Zrotation
						JOINT RightShoulder_split
						{
							OFFSET -3.249400 8.794197 -1.372250
							CHANNELS 3 Xrotation Yrotation Zrotation
							JOINT RightArm
							{
								OFFSET -11.953299 -2.279007 -0.146200
								CHANNELS 3 Xrotation Yrotation Zrotation
								JOINT RightForeArm
								{
									OFFSET -18.448900 0.000000 0.000000
									CHANNELS 3 Xrotation Yrotation Zrotation
									JOINT RightHand
									{
										OFFSET -29.527802 0.000000 0.000000
										CHANNELS 3 Xrotation Yrotation Zrotation
										JOINT RightHandThumb1
										{
											OFFSET -10.739754 -2.369614 9.225399
											CHANNELS 3 Xrotation Yrotation Zrotation
											JOINT RightHandThumb2
											{
												OFFSET -4.926170 -2.844131 2.844125
												CHANNELS 3 Xrotation Yrotation Zrotation
												JOINT RightHandThumb3
												{
													OFFSET -4.614891 -2.664413 2.664409
													CHANNELS 3 Xrotation Yrotation Zrotation
													JOINT RightHandThumb4
													{
														OFFSET -4.432465 -2.559082 2.559083
														CHANNELS 3 Xrotation Yrotation Zrotation
														End Site
														{
															OFFSET 0.000000 0.000000 0.000000
														}
													}
												}
											}
										}
										JOINT RightHandIndex1
										{
											OFFSET -26.467674 0.187653 6.405298
											CHANNELS 3 Xrotation Yrotation Zrotation
											JOINT RightHandIndex2
											{
												OFFSET -8.792900 0.000000 0.000000
												CHANNELS 3 Xrotation Yrotation Zrotation
												JOINT RightHandIndex3
												{
													OFFSET -10.075203 0.000000 0.000000
													CHANNELS 3 Xrotation Yrotation Zrotation
													End Site
													{
														OFFSET 0.000000 0.000000 0.000000
													}
												}
											}
										}
										JOINT RightHandMiddle1
										{
											OFFSET -25.764404 0.000000 0.000000
											CHANNELS 3 Xrotation Yrotation Zrotation
											JOINT RightHandMiddle2
											{
												OFFSET -9.393974 0.000000 0.000000
												CHANNELS 3 Xrotation Yrotation Zrotation
												JOINT RightHandMiddle3
												{
													OFFSET -10.771950 0.000000 0.000000
													CHANNELS 3 Xrotation Yrotation Zrotation
													End Site
													{
														OFFSET 0.000000 0.000000 0.000000
													}
												}
											}
										}
										JOINT RightHandRing1
										{
											OFFSET -24.660927 0.144547 -6.225808
											CHANNELS 3 Xrotation Yrotation Zrotation
											JOINT RightHandRing2
											{
												OFFSET -9.393799 0.000000 0.000000
												CHANNELS 3 Xrotation Yrotation Zrotation
												JOINT RightHandRing3
												{
													OFFSET -9.928497 0.000000 0.000000
													CHANNELS 3 Xrotation Yrotation Zrotation
													End Site
													{
														OFFSET 0.000000 0.000000 0.000000
													}
												}
											}
										}
										JOINT RightHandPinky1
										{
											OFFSET -23.655350 0.125290 -12.815412
											CHANNELS 3 Xrotation Yrotation Zrotation
											JOINT RightHandPinky2
											{
												OFFSET -8.425102 0.000000 0.000000
												CHANNELS 3 Xrotation Yrotation Zrotation
												JOINT RightHandPinky3
												{
													OFFSET -8.147003 0.000000 0.000000
													CHANNELS 3 Xrotation Yrotation Zrotation
													End Site
													{
														OFFSET 0.000000 0.000000 0.000000
													}
												}
											}
										}
									}
								}
							}
						}
					}
				}
			}
		}
	}
	JOINT LeftUpLeg
	{
		OFFSET 11.394100 -6.187798 -0.413800
		CHANNELS 3 Xrotation Yrotation Zrotation
		JOINT LeftLeg
		{
			OFFSET 0.430247 -32.302673 3.732800
			CHANNELS 3 Xrotation Yrotation Zrotation
			JOINT LeftFoot
			{
				OFFSET -0.430247 -48.264931 -6.423300
				CHANNELS 3 Xrotation Yrotation Zrotation
				JOINT LeftToeBase
				{
					OFFSET 4.230900 -16.068199 23.438400
					CHANNELS 3 Xrotation Yrotation Zrotation
					JOINT LeftToe_End
					{
						OFFSET 4.510700 0.695400 19.974600
						CHANNELS 3 Xrotation Yrotation Zrotation
						End Site
						{
							OFFSET 0.000000 0.000000 0.000000
						}
					}
				}
			}
		}
	}
	JOINT RightUpLeg
	{
		OFFSET -11.333700 -6.187798 -0.413800
		CHANNELS 3 Xrotation Yrotation Zrotation
		JOINT RightLeg
		{
			OFFSET -0.430392 -32.302628 3.733000
			CHANNELS 3 Xrotation Yrotation Zrotation
			JOINT RightFoot
			{
				OFFSET 0.430392 -48.264973 -6.423500
				CHANNELS 3 Xrotation Yrotation Zrotation
				JOINT RightToeBase
				{
					OFFSET -4.230900 -16.068199 23.438400
					CHANNELS 3 Xrotation Yrotation Zrotation
					JOINT RightToe_End
					{
						OFFSET -4.510700 0.695400 19.974600
						CHANNELS 3 Xrotation Yrotation Zrotation
						End Site
						{
							OFFSET 0.000000 0.000000 0.000000
						}
					}
				}
			}
		}
	}
}
MOTION
Frames: 4
Frame Time: 0.016667
60.872272 81.708817 -30.767447 17.181539 -4.096918 713.879679 37.321089 -2.516441 -8.104282 3.324713 -0.005390 1.710501 0.000000 0.000000 0.000000 3.320213 0.069689 1.714685 -10.701413 -0.212996 -2.074797 -25.893814 -3.052782 -3.080082 0.000000 -0.000000 -0.000000 -0.036519 1.382368 3.025443 0.000000 0.000000 0.000000 -21.303555 22.272374 -26.305082 0.000106 -81.466712 0.000100 21.775905 22.164270 25.734527 3.362049 12.388431 8.079684 1.012540 0.452035 -1.079076 -2.879650 -2.724037 2.871902 0.000002 -0.000002 0.000000 5.064572 -21.352669 12.934727 2.609073 5.399440 -51.555381 0.000001 0.000001 0.000000 1.066094 -16.631067 2.806719 1.129302 3.783489 -33.228491 0.000000 0.000003 0.000004 -1.597789 -11.079077 -8.654908 0.192412 1.619520 -13.549490 -0.000001 -0.000002 -0.000001 -0.084876 0.765993 -17.087378 -0.017968 -4.042625 -0.607473 0.000001 0.000000 0.000001 0.009037 -1.155006 -3.674748 0.000000 0.000000 0.000000 151.437588 190.135227 -164.585702 -0.000011 51.387983 0.000011 -20.829649 10.502355 -15.904637 -12.864454 13.318259 -9.916075 16.682894 -44.602180 -3.768048 2.602256 -8.390834 -3.112782 -0.000001 0.000000 0.000001 2.738895 8.449607 -20.575395 4.083426 -6.332790 65.597355 0.000000 0.000003 -0.000002 0.622158 6.773508 -5.159536 1.887350 -4.767034 43.179872 -0.000002 -0.000000 0.000000 -1.131946 4.266791 13.029854 0.409717 -2.355809 19.729444 -0.000001 0.000000 0.000002 -0.719371 -0.384300 28.142261 0.000000 -0.000009 0.000031 -0.000002 0.000002 -0.000001 -81.642460 -4.214722 23.698176 68.025406 7.792813 -6.290112 -1.707151 6.118524 -0.957468 -5.484960 0.000010 -0.000001 0.000000 -0.000003 -0.000000 -12.064875 -9.973903 -6.044551 51.389421 -16.938263 -8.933926 -10.126270 -21.265727 11.145702 -10.688840 -2.412677 17.656760 0.000001 -0.000001 0.000001 
61.921570 82.349022 -31.523520 17.255689 -5.582513 714.573353 36.486283 -1.560223 -9.384163 3.203187 0.198378 1.111125 0.000000 0.000000 0.000000 3.193079 0.230347 1.099232 -10.600855 -0.361713 -1.941251 -25.401462 -3.698653 -2.850405 -0.000002 -0.000000 -0.000001 -0.064981 1.578010 3.152919 0.000000 0.000000 0.000000 -19.174928 24.361912 -27.926284 -0.000095 -79.166906 -0.000089 21.742818 19.912856 24.059541 3.300137 12.418664 8.222854 1.008017 -0.217192 -0.718189 -3.253980 -3.420236 2.934299 -0.000000 -0.000001 0.000000 4.214780 -15.938709 14.998023 3.065118 5.730352 -56.255449 -0.000000 0.000001 0.000001 1.006696 -12.867765 3.880725 1.355406 4.107158 -36.513665 -0.000001 -0.000003 -0.000003 -1.397078 -9.004244 -9.001287 0.249867 1.841602 -15.451988 -0.000001 -0.000002 -0.000000 0.061037 1.327417 -18.765376 -0.017903 -4.036225 -0.660497 0.000002 0.000002 0.000002 -0.017756 -1.281127 -4.036781 0.000000 0.000000 0.000000 149.113384 185.575516 -167.091849 -0.000001 50.080156 0.000002 -19.793516 12.357539 -14.829765 -13.267552 13.341880 -12.514661 15.746267 -41.085002 -3.297737 2.150040 -7.507793 -3.107261 0.000001 0.000000 -0.000001 2.814783 8.183787 -22.162050 4.115554 -6.347186 65.888198 -0.000001 -0.000001 -0.000002 0.741420 6.628431 -6.461715 1.897012 -4.777267 43.296077 0.000000 0.000001 -0.000000 -1.020982 4.235023 12.021049 0.410787 -2.358792 19.755484 0.000001 -0.000000 0.000002 -0.697540 -0.328816 27.345135 0.000002 0.000004 -0.000000 0.000001 0.000000 0.000001 -80.627658 -3.398572 23.677363 66.493019 7.570014 -6.952608 -1.510899 7.948084 -0.110023 -5.468762 0.000000 0.000004 -0.000000 0.000002 0.000000 -7.228961 -10.380363 -4.501697 47.839205 -16.446310 -7.942841 -9.550055 -20.010253 13.442254 -13.015185 -2.631015 18.615199 0.000001 0.000000 -0.000002 
62.887978 83.005081 -32.330715 17.370913 -7.053165 715.319647 35.612265 -0.495794 -10.606491 3.102289 0.410910 0.463501 0.000000 0.000000 0.000000 3.088641 0.399147 0.434619 -10.460211 -0.510505 -1.817424 -24.881046 -4.351917 -2.622943 0.000001 -0.000001 -0.000002 -0.090142 1.713343 3.358269 0.000000 0.000000 0.000000 -16.735176 26.258222 -29.749582 0.000015 -77.279725 0.000010 21.168196 16.678149 23.120230 3.223315 12.405573 8.352244 1.171327 -0.386807 -0.336142 -3.479340 -3.830497 2.986846 0.000002 0.000004 -0.000001 3.171710 -11.670039 16.036830 3.435169 5.959749 -59.887857 -0.000000 0.000000 0.000001 0.764251 -9.819702 4.058097 1.547616 4.354147 -39.118696 -0.000003 -0.000002 0.000001 -1.318746 -7.310437 -10.035993 0.303206 2.024551 -17.033022 -0.000003 -0.000001 -0.000001 0.225491 1.872626 -20.940745 -0.017950 -4.040800 -0.622519 0.000002 0.000001 0.000000 -0.038175 -1.352651 -4.346498 0.000000 0.000000 0.000000 147.092468 180.964906 -169.251978 -0.000007 48.885064 0.000003 -18.426937 14.080512 -13.748974 -13.525653 12.937292 -15.007826 14.406577 -36.388215 -2.721935 1.448749 -6.137572 -3.097419 -0.000001 0.000000 -0.000002 2.795215 7.831810 -23.384657 4.114978 -6.346929 65.882905 -0.000001 -0.000001 -0.000003 0.814599 6.378998 -7.540855 1.891395 -4.771307 43.228469 0.000002 0.000001 0.000000 -0.905248 4.118205 11.081093 0.408462 -2.352319 19.698727 -0.000001 -0.000000 -0.000001 -0.655701 -0.308696 26.499671 0.000000 -0.000005 0.000035 0.000001 -0.000000 -0.000000 -79.574429 -2.644791 23.542566 64.753813 7.385043 -7.550727 -1.164538 9.837947 0.625470 -5.434423 -0.000009 0.000001 -0.000000 0.000003 0.000000 -2.428216 -10.492810 -3.034844 43.871412 -15.731773 -6.990811 -8.308940 -18.159475 16.101802 -14.894027 -3.142351 20.786853 0.000000 -0.000000 0.000001 
63.778664 83.653183 -33.191322 17.581587 -8.497190 716.090584 34.608862 0.676088 -11.714124 3.020526 0.627744 -0.197871 0.000000 0.000000 0.000000 3.005871 0.573893 -0.244528 -10.288290 -0.657663 -1.705411 -24.341503 -5.005095 -2.402628 -0.000000 -0.000000 -0.000000 -0.103277 1.737704 3.579327 0.000000 0.000000 0.000000 -13.951005 28.085746 -31.729808 0.000008 -75.802587 0.000001 19.977683 12.451161 22.902282 3.128233 12.344139 8.469750 1.295420 -0.491935 -0.133276 -3.550454 -3.948643 3.020083 0.000001 0.000001 -0.000000 2.327522 -8.788935 16.270981 3.698105 6.103864 -62.389864 0.000002 -0.000001 -0.000001 0.517668 -7.684720 3.572686 1.690839 4.524048 -40.969018 -0.000002 -0.000000 -0.000000 -1.317522 -6.088522 -11.508998 0.346147 2.159716 -18.209605 -0.000004 -0.000001 -0.000000 0.393695 2.345667 -23.342612 -0.018051 -4.049873 -0.547540 0.000001 0.000001 0.000000 -0.053448 -1.346300 -4.684763 0.000000 0.000000 0.000000 145.443920 176.423335 -171.083521 0.000001 47.935265 0.000003 -16.712283 15.308532 -12.732599 -13.646754 12.018255 -17.311586 12.612650 -30.503632 -2.049840 0.483784 -4.243145 -3.081317 -0.000001 -0.000001 -0.000002 2.676472 7.399305 -24.154653 4.072172 -6.327699 65.495285 -0.000001 -0.000001 -0.000001 0.833908 6.021687 -8.333761 1.866128 -4.744385 42.923754 -0.000001 -0.000001 -0.000003 -0.789135 3.905385 10.244403 0.401819 -2.333701 19.536276 0.000000 0.000001 0.000002 -0.592025 -0.333978 25.618040 -0.000003 0.000003 0.000005 0.000002 0.000003 0.000001 -78.585056 -1.988220 23.342732 62.856114 7.246037 -8.108896 -0.661928 11.745286 1.276104 -5.335772 -0.000003 -0.000004 0.000000 0.000000 0.000000 2.269422 -10.317261 -1.605681 39.423961 -14.815959 -6.075867 -6.205595 -15.784608 18.869050 -15.908124 -4.155364 25.046946 -0.000000 -0.000001 0.000000 
